<svg width="95" height="69" viewBox="0 0 95 69" fill="none" xmlns="http://www.w3.org/2000/svg">
<g filter="url(#filter0_d_75_4)">
<path d="M18.0599 0.208313C10.2917 0.208313 4 6.50595 4 14.2715V46.7251C4 54.4919 10.2963 60.7883 18.0632 60.7883H76.4796C84.2464 60.7883 90.5428 54.4919 90.5428 46.7251V14.2715C90.5428 6.50595 84.2512 0.208313 76.4831 0.208313H18.0599ZM22.5211 22.7938L25.6364 25.9081L28.7498 22.7947C30.0172 21.5272 32.072 21.5272 33.3394 22.7947C34.6068 24.0621 34.6068 26.1167 33.3394 27.3841L30.2272 30.4966L33.3389 33.6069C34.6066 34.8739 34.6071 36.9289 33.34 38.1963C32.0729 39.4642 30.0181 39.4646 28.7503 38.1976L25.6375 35.086L22.5216 38.2019C21.2542 39.4693 19.1993 39.4693 17.932 38.2019C16.6646 36.9345 16.6646 34.88 17.932 33.6126L21.0468 30.4974L17.9325 27.3849C16.6648 26.1175 16.6643 24.063 17.9314 22.7951C19.1985 21.5274 21.2534 21.5269 22.5211 22.7938ZM46.3203 22.7938L49.4359 25.9081L52.5492 22.7947C53.8167 21.5272 55.8712 21.5272 57.1386 22.7947C58.406 24.0621 58.406 26.1167 57.1386 27.3841L54.0265 30.4966L57.1382 33.6069C58.406 34.8739 58.4065 36.9289 57.1395 38.1963C55.872 39.4642 53.8175 39.4646 52.5497 38.1976L49.4367 35.086L46.3207 38.2019C45.0533 39.4693 42.9988 39.4693 41.7314 38.2019C40.464 36.9345 40.464 34.88 41.7314 33.6126L44.8461 30.4974L41.7318 27.3849C40.464 26.1175 40.4635 24.063 41.7305 22.7951C42.9979 21.5274 45.0525 21.5269 46.3203 22.7938ZM63.4982 40.2344C63.4982 38.4421 64.9513 36.989 66.7436 36.989H74.3161C76.1084 36.989 77.5614 38.4421 77.5614 40.2344C77.5614 42.0267 76.1084 43.4797 74.3161 43.4797H66.7436C64.9513 43.4797 63.4982 42.0267 63.4982 40.2344Z" fill="url(#paint0_linear_75_4)"/>
</g>
<defs>
<filter id="filter0_d_75_4" x="0" y="0.208313" width="94.5428" height="68.58" filterUnits="userSpaceOnUse" color-interpolation-filters="sRGB">
<feFlood flood-opacity="0" result="BackgroundImageFix"/>
<feColorMatrix in="SourceAlpha" type="matrix" values="0 0 0 0 0 0 0 0 0 0 0 0 0 0 0 0 0 0 127 0" result="hardAlpha"/>
<feOffset dy="4"/>
<feGaussianBlur stdDeviation="2"/>
<feComposite in2="hardAlpha" operator="out"/>
<feColorMatrix type="matrix" values="0 0 0 0 0 0 0 0 0 0 0 0 0 0 0 0 0 0 0.25 0"/>
<feBlend mode="normal" in2="BackgroundImageFix" result="effect1_dropShadow_75_4"/>
<feBlend mode="normal" in="SourceGraphic" in2="effect1_dropShadow_75_4" result="shape"/>
</filter>
<linearGradient id="paint0_linear_75_4" x1="4.35758" y1="-8.55324" x2="93.6183" y2="60.538" gradientUnits="userSpaceOnUse">
<stop stop-color="#EB0376"/>
<stop offset="1" stop-color="#3800D5"/>
</linearGradient>
</defs>
</svg>
