<svg width="18" height="15" viewBox="0 0 18 15" fill="none" xmlns="http://www.w3.org/2000/svg">
<path d="M0.899997 8.09999L14.9274 8.09999L10.1637 12.8637C10.0786 12.9469 10.0108 13.0462 9.96437 13.1558C9.9179 13.2654 9.89364 13.3831 9.89299 13.5021C9.89233 13.6212 9.9153 13.7392 9.96055 13.8493C10.0058 13.9594 10.0725 14.0594 10.1566 14.1436C10.2408 14.2277 10.3409 14.2943 10.451 14.3396C10.5611 14.3848 10.6791 14.4078 10.7981 14.4071C10.9171 14.4064 11.0348 14.3821 11.1444 14.3356C11.254 14.2892 11.3533 14.2214 11.4365 14.1363L17.7365 7.83629C17.9052 7.66751 18 7.43864 18 7.19999C18 6.96134 17.9052 6.73246 17.7365 6.56369L11.4365 0.263701C11.353 0.179966 11.2538 0.113561 11.1446 0.0683052C11.0353 0.0230499 10.9182 -0.000163229 10.8 8.63925e-07C10.622 3.88658e-05 10.448 0.0528433 10.3001 0.151739C10.1521 0.250635 10.0368 0.391181 9.96867 0.555611C9.90057 0.72004 9.88275 0.90097 9.91746 1.07553C9.95217 1.25008 10.0379 1.41043 10.1637 1.5363L14.9274 6.29999L0.899997 6.29999C0.661304 6.29999 0.432384 6.39481 0.263602 6.56359C0.0948192 6.73238 -8.34465e-07 6.96129 -8.34465e-07 7.19999C-8.34465e-07 7.43868 0.0948192 7.6676 0.263602 7.83638C0.432384 8.00517 0.661304 8.09999 0.899997 8.09999Z" fill="black"/>
</svg>
