<svg width="22" height="22" viewBox="0 0 22 22" fill="none" xmlns="http://www.w3.org/2000/svg">
<path fill-rule="evenodd" clip-rule="evenodd" d="M10.5417 16.2916C13.7173 16.2916 16.2917 13.7173 16.2917 10.5416C16.2917 7.36599 13.7173 4.79163 10.5417 4.79163C7.36605 4.79163 4.79169 7.36599 4.79169 10.5416C4.79169 13.7173 7.36605 16.2916 10.5417 16.2916ZM10.5417 14.375C12.6587 14.375 14.375 12.6587 14.375 10.5416C14.375 8.42453 12.6587 6.70829 10.5417 6.70829C8.42459 6.70829 6.70835 8.42453 6.70835 10.5416C6.70835 12.6587 8.42459 14.375 10.5417 14.375Z" fill="url(#paint0_linear_76_217)"/>
<path d="M16.2917 3.83337C15.7624 3.83337 15.3333 4.26244 15.3333 4.79171C15.3333 5.32098 15.7624 5.75004 16.2917 5.75004C16.821 5.75004 17.25 5.32098 17.25 4.79171C17.25 4.26244 16.821 3.83337 16.2917 3.83337Z" fill="url(#paint1_linear_76_217)"/>
<path fill-rule="evenodd" clip-rule="evenodd" d="M0.626712 3.13956C0 4.36955 0 5.9797 0 9.2V11.8833C0 15.1036 0 16.7138 0.626712 17.9437C1.17798 19.0257 2.05762 19.9054 3.13956 20.4566C4.36955 21.0833 5.9797 21.0833 9.2 21.0833H11.8833C15.1036 21.0833 16.7138 21.0833 17.9437 20.4566C19.0257 19.9054 19.9054 19.0257 20.4566 17.9437C21.0833 16.7138 21.0833 15.1036 21.0833 11.8833V9.2C21.0833 5.9797 21.0833 4.36955 20.4566 3.13956C19.9054 2.05762 19.0257 1.17798 17.9437 0.626712C16.7138 0 15.1036 0 11.8833 0H9.2C5.9797 0 4.36955 0 3.13956 0.626712C2.05762 1.17798 1.17798 2.05762 0.626712 3.13956ZM11.8833 1.91667H9.2C7.55822 1.91667 6.44216 1.91816 5.57949 1.98864C4.73919 2.05729 4.30947 2.18173 4.00971 2.33447C3.28842 2.70199 2.70199 3.28842 2.33447 4.00971C2.18173 4.30947 2.05729 4.73919 1.98864 5.57949C1.91816 6.44216 1.91667 7.55822 1.91667 9.2V11.8833C1.91667 13.5252 1.91816 14.6411 1.98864 15.5038C2.05729 16.3442 2.18173 16.7739 2.33447 17.0737C2.70199 17.7949 3.28842 18.3813 4.00971 18.7488C4.30947 18.9016 4.73919 19.0261 5.57949 19.0947C6.44216 19.1651 7.55822 19.1667 9.2 19.1667H11.8833C13.5252 19.1667 14.6411 19.1651 15.5038 19.0947C16.3442 19.0261 16.7739 18.9016 17.0737 18.7488C17.7949 18.3813 18.3813 17.7949 18.7488 17.0737C18.9016 16.7739 19.0261 16.3442 19.0947 15.5038C19.1651 14.6411 19.1667 13.5252 19.1667 11.8833V9.2C19.1667 7.55822 19.1651 6.44216 19.0947 5.57949C19.0261 4.73919 18.9016 4.30947 18.7488 4.00971C18.3813 3.28842 17.7949 2.70199 17.0737 2.33447C16.7739 2.18173 16.3442 2.05729 15.5038 1.98864C14.6411 1.91816 13.5252 1.91667 11.8833 1.91667Z" fill="url(#paint2_linear_76_217)"/>
<defs>
<linearGradient id="paint0_linear_76_217" x1="10.5417" y1="4.79163" x2="10.5417" y2="16.2916" gradientUnits="userSpaceOnUse">
<stop stop-color="#FE046D"/>
<stop offset="1" stop-color="#8203AD"/>
</linearGradient>
<linearGradient id="paint1_linear_76_217" x1="16.2917" y1="3.83337" x2="16.2917" y2="5.75004" gradientUnits="userSpaceOnUse">
<stop stop-color="#FE046D"/>
<stop offset="1" stop-color="#8203AD"/>
</linearGradient>
<linearGradient id="paint2_linear_76_217" x1="10.5417" y1="0" x2="10.5417" y2="21.0833" gradientUnits="userSpaceOnUse">
<stop stop-color="#FE046D"/>
<stop offset="1" stop-color="#8203AD"/>
</linearGradient>
</defs>
</svg>
