<svg width="20" height="20" viewBox="0 0 20 20" fill="none" xmlns="http://www.w3.org/2000/svg">
<path d="M4.79585 16.9025L3.33335 6.66663H16.6667L15.2042 16.9025C15.1474 17.2996 14.9493 17.663 14.6462 17.9258C14.3431 18.1886 13.9554 18.3333 13.5542 18.3333H6.44585C6.04467 18.3333 5.65693 18.1886 5.35384 17.9258C5.05074 17.663 4.85262 17.2996 4.79585 16.9025ZM17.5 3.33329H13.3334V2.49996C13.3334 2.27895 13.2456 2.06698 13.0893 1.9107C12.933 1.75442 12.721 1.66663 12.5 1.66663H7.50002C7.27901 1.66663 7.06705 1.75442 6.91076 1.9107C6.75448 2.06698 6.66669 2.27895 6.66669 2.49996V3.33329H2.50002C2.27901 3.33329 2.06704 3.42109 1.91076 3.57737C1.75448 3.73365 1.66669 3.94561 1.66669 4.16663C1.66669 4.38764 1.75448 4.5996 1.91076 4.75588C2.06704 4.91216 2.27901 4.99996 2.50002 4.99996H17.5C17.721 4.99996 17.933 4.91216 18.0893 4.75588C18.2456 4.5996 18.3334 4.38764 18.3334 4.16663C18.3334 3.94561 18.2456 3.73365 18.0893 3.57737C17.933 3.42109 17.721 3.33329 17.5 3.33329Z" fill="#D90000"/>
</svg>
