<svg width="76" height="58" viewBox="0 0 76 58" fill="none" xmlns="http://www.w3.org/2000/svg">
<path d="M9.77876 50.3328C8.91392 50.3328 8.1052 50.1055 7.41444 49.7061L27.7898 31.9488L29.6916 33.6038C31.2834 34.9871 33.2758 35.6875 35.2496 35.6875C37.2331 35.6875 39.2255 34.9871 40.8173 33.6038L42.7183 31.9488L49.6162 37.9623C50.3963 36.6477 51.3657 35.4633 52.4902 34.4399L46.1756 28.938L65.497 12.0814V30.7035C67.2935 31.0311 68.9781 31.6735 70.4991 32.5718V9.77994C70.4991 9.1346 70.4361 8.49601 70.318 7.87808C69.9993 6.2772 69.2899 4.81231 68.2991 3.60209C68.0895 3.33833 67.871 3.10226 67.6338 2.86619C65.8786 1.10105 63.4131 0 60.7201 0H9.77876C7.08591 0 4.63016 1.10105 2.86502 2.86619C2.62881 3.10226 2.41047 3.33833 2.20093 3.60209C1.20919 4.81231 0.499825 6.2772 0.190933 7.87808C0.0630093 8.49601 0 9.1346 0 9.77994V45.5578C0 46.9304 0.291162 48.2498 0.809743 49.4413C1.29081 50.5787 2.00121 51.6078 2.86502 52.4706C3.0835 52.689 3.30184 52.8896 3.53805 53.0895C5.23036 54.4905 7.41444 55.3368 9.77876 55.3368H50.8786C49.689 53.8667 48.7632 52.1765 48.1806 50.3326H9.77876V50.3328ZM6.40307 6.40425C7.2767 5.53149 8.45058 5.00324 9.77876 5.00324H60.7204C62.0487 5.00324 63.2322 5.53164 64.096 6.40425C64.2495 6.55972 64.3953 6.73292 64.5241 6.9051L37.8244 30.1749C37.0874 30.8204 36.1773 31.1392 35.2496 31.1392C34.3307 31.1392 33.4215 30.8204 32.6747 30.1749L5.98589 6.89528C6.10399 6.7231 6.24965 6.55972 6.40307 6.40425ZM5.00206 45.558V12.0725L24.3245 28.9283L5.01188 45.7665C5.00206 45.7026 5.00206 45.6308 5.00206 45.558Z" fill="url(#paint0_linear_75_12)"/>
<path d="M62.7578 33.4669C55.9828 33.4669 50.4927 38.959 50.4927 45.734C50.4927 52.5079 55.9828 58 62.7578 58C69.5338 58 75.0249 52.5079 75.0249 45.734C75.0249 38.9588 69.5338 33.4669 62.7578 33.4669ZM64.6547 51.6007H61.6755V43.3332H61.6401L59.4796 44.3535L59.0288 41.7423L62.0553 40.3588H64.6548L64.6547 51.6007Z" fill="url(#paint1_linear_75_12)"/>
<defs>
<linearGradient id="paint0_linear_75_12" x1="10.3365" y1="4.77041" x2="61.306" y2="50.7481" gradientUnits="userSpaceOnUse">
<stop stop-color="#EC0376"/>
<stop offset="1" stop-color="#3B00D3"/>
</linearGradient>
<linearGradient id="paint1_linear_75_12" x1="54.0895" y1="35.5818" x2="75.5167" y2="50.7528" gradientUnits="userSpaceOnUse">
<stop stop-color="#EC0376"/>
<stop offset="1" stop-color="#3B00D3"/>
</linearGradient>
</defs>
</svg>
