<svg width="36" height="36" viewBox="0 0 36 36" fill="none" xmlns="http://www.w3.org/2000/svg">
<g clip-path="url(#clip0_57_127)">
<path d="M36 18C36 8.05888 27.9411 0 18 0C8.05888 0 0 8.05888 0 18C0 27.9411 8.05888 36 18 36C27.9411 36 36 27.9411 36 18Z" fill="#1778F2"/>
<path d="M19.4354 28.16V18.5249H22.6696L23.1545 14.7699H19.4354V12.3725C19.4354 11.2854 19.7373 10.5445 21.2963 10.5445H23.2847V7.18697C22.3223 7.08515 21.355 7.03582 20.3872 7.03923C17.5203 7.03923 15.5576 8.78906 15.5576 12.0028V14.7699H12.3152V18.5249H15.5576V28.16H19.4354Z" fill="#FDFDFD"/>
</g>
<defs>
<clipPath id="clip0_57_127">
<rect width="36" height="36" fill="white"/>
</clipPath>
</defs>
</svg>
