<svg width="115" height="68" viewBox="0 0 115 68" fill="none" xmlns="http://www.w3.org/2000/svg">
<path d="M28.0412 5.89966C27.3175 6.62338 26.8701 7.62358 26.8701 8.72809L26.8701 15.5561L41.0122 15.5561V8.72809C41.0122 6.51908 39.2216 4.72851 37.0126 4.72851H30.8696C29.7651 4.72851 28.7649 5.17594 28.0412 5.89966ZM26.8701 21.2129L26.8701 54.4193C26.8701 54.4193 28.0517 53.0051 29.019 53.0051C29.9863 53.0051 32.7532 56.5683 33.9411 56.5683C35.1291 56.5683 37.856 53.0051 38.7583 53.0051C39.6606 53.0051 41.0122 54.4193 41.0122 54.4193L41.0122 21.2129L26.8701 21.2129ZM29.6985 60.8109L32.143 65.9236C32.2396 66.1252 32.3694 66.3091 32.5269 66.4678C32.902 66.8428 33.4107 67.0536 33.9411 67.0536C34.4716 67.0536 34.9803 66.8428 35.3553 66.4678C35.5128 66.3091 35.6426 66.1252 35.7393 65.9236C35.7421 65.9172 35.7448 65.9108 35.7476 65.9043L35.7724 65.8573C35.7734 65.8527 35.7743 65.8481 35.7752 65.8435L38.1838 60.8109L33.9411 60.8109L29.6985 60.8109Z" fill="url(#paint0_linear_57_20)"/>
<rect x="48" y="1.73663" width="66.0645" height="64" rx="17" fill="url(#paint1_linear_57_20)"/>
<path d="M93 47.721C93 48.3392 91.6277 48.6483 88.8832 48.6483C86.1387 48.6483 84.6496 48.4275 84.4161 47.9859L77.1022 34.2081V47.9418C77.1022 48.4717 75.7445 48.7366 73.0292 48.7366C70.3431 48.7366 69 48.4717 69 47.9418V18.399C69 17.9574 70.1533 17.7366 72.4599 17.7366C73.365 17.7366 74.4161 17.825 75.6131 18.0016C76.8394 18.1488 77.5839 18.4432 77.8467 18.8848L84.854 32.4859V18.6198C84.854 18.0605 86.2117 17.7808 88.927 17.7808C91.6423 17.7808 93 18.0605 93 18.6198V47.721Z" fill="white"/>
<circle cx="99" cy="11.7366" r="4" fill="white"/>
<defs>
<linearGradient id="paint0_linear_57_20" x1="16.9704" y1="16.9704" x2="50.9116" y2="50.9116" gradientUnits="userSpaceOnUse">
<stop stop-color="#FE046D"/>
<stop offset="1" stop-color="#0500F0"/>
</linearGradient>
<linearGradient id="paint1_linear_57_20" x1="81.0323" y1="1.73663" x2="125" y2="70.7366" gradientUnits="userSpaceOnUse">
<stop stop-color="#FE046D"/>
<stop offset="1" stop-color="#0500F0"/>
</linearGradient>
</defs>
</svg>
