<svg width="33" height="33" viewBox="0 0 33 33" fill="none" xmlns="http://www.w3.org/2000/svg">
<path opacity="0.1" d="M28.875 16.5C28.875 23.3346 23.3346 28.875 16.5 28.875C9.66548 28.875 4.125 23.3346 4.125 16.5C4.125 9.66548 9.66548 4.125 16.5 4.125C23.3346 4.125 28.875 9.66548 28.875 16.5Z" fill="#5BCE96"/>
<path d="M12.375 16.5H20.625" stroke="#5BCE96" stroke-width="2" stroke-linecap="round" stroke-linejoin="round"/>
<path d="M16.5 12.375V20.625" stroke="#5BCE96" stroke-width="2" stroke-linecap="round" stroke-linejoin="round"/>
<path d="M28.875 16.5C28.875 23.3346 23.3346 28.875 16.5 28.875C9.66548 28.875 4.125 23.3346 4.125 16.5C4.125 9.66548 9.66548 4.125 16.5 4.125C23.3346 4.125 28.875 9.66548 28.875 16.5Z" stroke="#5BCE96" stroke-width="2"/>
</svg>
