<svg width="20" height="16" viewBox="0 0 20 16" fill="none" xmlns="http://www.w3.org/2000/svg">
<path d="M19 7.00789L3.41403 7.00789L8.70702 1.7149C8.80158 1.62242 8.87685 1.5121 8.92848 1.39033C8.9801 1.26856 9.00706 1.13775 9.00779 1.00549C9.00852 0.873229 8.983 0.742138 8.93272 0.619806C8.88244 0.497473 8.80838 0.386332 8.71485 0.292817C8.62132 0.1993 8.51016 0.125268 8.38782 0.0750052C8.26548 0.0247427 8.13439 -0.000751851 8.00213 -3.49784e-07C7.86986 0.000751151 7.73907 0.0277344 7.6173 0.0793845C7.49554 0.131034 7.38524 0.206324 7.29277 0.300897L0.292786 7.30089C0.105315 7.48841 -3.61281e-07 7.74272 -3.49691e-07 8.00789C-3.381e-07 8.27305 0.105315 8.52736 0.292786 8.71488L7.29277 15.7149C7.38553 15.8079 7.49577 15.8817 7.61715 15.932C7.73852 15.9823 7.86864 16.0081 8.00002 16.0079C8.19777 16.0078 8.39107 15.9492 8.55548 15.8393C8.71989 15.7294 8.84803 15.5732 8.9237 15.3905C8.99937 15.2078 9.01917 15.0068 8.9806 14.8128C8.94204 14.6189 8.84683 14.4407 8.70702 14.3009L3.41403 9.00788L19 9.00788C19.2652 9.00788 19.5196 8.90253 19.7071 8.71499C19.8946 8.52745 20 8.2731 20 8.00789C20 7.74267 19.8946 7.48832 19.7071 7.30078C19.5196 7.11324 19.2652 7.00789 19 7.00789Z" fill="white"/>
</svg>
