<svg width="41" height="40" viewBox="0 0 41 40" fill="none" xmlns="http://www.w3.org/2000/svg">
<circle cx="20.8333" cy="20" r="20" fill="#EEEEEE"/>
<path fill-rule="evenodd" clip-rule="evenodd" d="M11.8333 16C11.8333 15.4477 12.281 15 12.8333 15H28.8333C29.3856 15 29.8333 15.4477 29.8333 16C29.8333 16.5523 29.3856 17 28.8333 17H12.8333C12.281 17 11.8333 16.5523 11.8333 16ZM14.8333 21C14.8333 20.4477 15.281 20 15.8333 20H25.8333C26.3856 20 26.8333 20.4477 26.8333 21C26.8333 21.5523 26.3856 22 25.8333 22H15.8333C15.281 22 14.8333 21.5523 14.8333 21ZM17.8333 26C17.8333 25.4477 18.281 25 18.8333 25H22.8333C23.3856 25 23.8333 25.4477 23.8333 26C23.8333 26.5523 23.3856 27 22.8333 27H18.8333C18.281 27 17.8333 26.5523 17.8333 26Z" fill="#9A9A9A"/>
</svg>
