<svg width="30" height="30" viewBox="0 0 30 30" fill="none" xmlns="http://www.w3.org/2000/svg">
<g clip-path="url(#clip0_57_83)">
<path d="M29.0472 15.2806C29.0472 14.0515 28.9483 13.1546 28.7343 12.2245H14.8207V17.772H22.9877C22.8231 19.1506 21.9339 21.2268 19.958 22.6219L19.9303 22.8076L24.3295 26.2454L24.6343 26.2761C27.4334 23.6684 29.0472 19.8316 29.0472 15.2806Z" fill="#4285F4"/>
<path d="M14.8207 29.897C18.8219 29.897 22.1808 28.5682 24.6343 26.2762L19.958 22.622C18.7066 23.5023 17.0271 24.1169 14.8207 24.1169C10.9019 24.1169 7.57582 21.5093 6.39017 17.905L6.21638 17.9199L1.64201 21.4909L1.58218 21.6587C4.0191 26.5418 9.02471 29.897 14.8207 29.897Z" fill="#34A853"/>
<path d="M6.39015 17.905C6.07731 16.9749 5.89626 15.9782 5.89626 14.9485C5.89626 13.9187 6.07731 12.9221 6.37369 11.992L6.36541 11.7939L1.73371 8.16553L1.58217 8.23824C0.577804 10.2646 0.00149536 12.5401 0.00149536 14.9485C0.00149536 17.3569 0.577804 19.6323 1.58217 21.6587L6.39015 17.905Z" fill="#FBBC05"/>
<path d="M15.2385 5.78004C18.0212 5.78004 19.8983 6.99252 20.9686 8.00577L25.1509 3.8866C22.5823 1.47824 19.2397 0 15.2385 0C9.44253 0 4.43691 3.35508 2 8.23821L6.79153 11.992C7.99364 8.38775 11.3197 5.78004 15.2385 5.78004Z" fill="#EB4335"/>
</g>
<defs>
<clipPath id="clip0_57_83">
<rect width="29.0625" height="30" fill="white"/>
</clipPath>
</defs>
</svg>
