<svg width="181" height="107" viewBox="0 0 181 107" fill="none" xmlns="http://www.w3.org/2000/svg">
<path d="M44.2004 9.29939C43.0596 10.4402 42.3543 12.0168 42.3543 13.7577L42.3543 24.5205L64.6461 24.5205L64.6461 13.7577C64.6461 10.2758 61.8237 7.45336 58.3417 7.45336L48.6587 7.45336C46.9177 7.45336 45.3411 8.15861 44.2004 9.29939ZM42.3543 33.4372L42.3543 85.7793C42.3543 85.7793 44.2169 83.5501 45.7416 83.5501C47.2664 83.5501 51.6277 89.1666 53.5002 89.1666C55.3727 89.1666 59.6711 83.5501 61.0933 83.5501C62.5156 83.5501 64.6461 85.7793 64.6461 85.7793L64.6461 33.4372L42.3543 33.4372ZM46.8127 95.8541L50.6659 103.913C50.8182 104.231 51.0228 104.521 51.271 104.771C51.8623 105.362 52.6641 105.694 53.5002 105.694C54.3363 105.694 55.1382 105.362 55.7294 104.771C55.9776 104.521 56.1822 104.231 56.3346 103.913C56.339 103.903 56.3433 103.893 56.3476 103.883L56.3868 103.809C56.3883 103.801 56.3898 103.794 56.3912 103.787L60.1877 95.8541L53.5002 95.8541L46.8127 95.8541Z" fill="white"/>
<rect x="76" y="3" width="104.135" height="100.881" rx="17" fill="white"/>
<path d="M146.932 75.4835C146.932 76.458 144.769 76.9452 140.443 76.9452C136.117 76.9452 133.77 76.5972 133.401 75.9011L121.873 54.1837V75.8315C121.873 76.6668 119.733 77.0844 115.453 77.0844C111.219 77.0844 109.102 76.6668 109.102 75.8315V29.2643C109.102 28.5683 110.919 28.2202 114.555 28.2202C115.982 28.2202 117.639 28.3594 119.526 28.6379C121.459 28.8699 122.632 29.3339 123.046 30.03L134.092 51.469V29.6124C134.092 28.7307 136.232 28.2898 140.512 28.2898C144.792 28.2898 146.932 28.7307 146.932 29.6124V75.4835Z" fill="url(#paint0_linear_162_2)"/>
<circle cx="156.39" cy="18.7627" r="6.30506" fill="#FE046D"/>
<defs>
<linearGradient id="paint0_linear_162_2" x1="128.017" y1="28.2202" x2="158.5" y2="90" gradientUnits="userSpaceOnUse">
<stop stop-color="#FE046D"/>
<stop offset="1" stop-color="#0500F0"/>
</linearGradient>
</defs>
</svg>
