<svg width="40" height="40" viewBox="0 0 40 40" fill="none" xmlns="http://www.w3.org/2000/svg">
<path d="M39.67 20.0016C39.67 9.07254 30.7641 0.166626 19.835 0.166626C8.90591 0.166626 0 9.07254 0 20.0016C0 25.7538 2.47937 30.9307 6.4067 34.5605C6.4067 34.5803 6.4067 34.5803 6.38687 34.6002C6.58522 34.7985 6.82324 34.9572 7.02159 35.1357C7.1406 35.2349 7.23977 35.3341 7.35878 35.4134C7.71581 35.7109 8.11251 35.9886 8.48938 36.2663C8.62823 36.3655 8.74723 36.4448 8.88608 36.544C9.26294 36.8019 9.65964 37.0399 10.0762 37.2581C10.215 37.3374 10.3737 37.4366 10.5125 37.5159C10.9092 37.7341 11.3258 37.9325 11.7622 38.111C11.9208 38.1903 12.0795 38.2697 12.2382 38.3292C12.6746 38.5077 13.1109 38.6664 13.5473 38.8052C13.706 38.8647 13.8647 38.9242 14.0233 38.9639C14.4994 39.1027 14.9754 39.2217 15.4515 39.3407C15.5903 39.3804 15.7292 39.4201 15.8878 39.4399C16.4432 39.5589 16.9986 39.6383 17.5738 39.6978C17.6531 39.6978 17.7325 39.7176 17.8118 39.7374C18.4862 39.797 19.1606 39.8366 19.835 39.8366C20.5094 39.8366 21.1838 39.797 21.8383 39.7374C21.9177 39.7374 21.997 39.7176 22.0764 39.6978C22.6516 39.6383 23.2069 39.5589 23.7623 39.4399C23.9012 39.4201 24.04 39.3606 24.1987 39.3407C24.6747 39.2217 25.1706 39.1226 25.6268 38.9639C25.7855 38.9044 25.9442 38.8449 26.1029 38.8052C26.5392 38.6465 26.9954 38.5077 27.412 38.3292C27.5706 38.2697 27.7293 38.1903 27.888 38.111C28.3045 37.9325 28.7211 37.7341 29.1376 37.5159C29.2963 37.4366 29.4351 37.3374 29.574 37.2581C29.9707 37.0201 30.3674 36.8019 30.7641 36.544C30.9029 36.4647 31.0219 36.3655 31.1608 36.2663C31.5575 35.9886 31.9343 35.7109 32.2914 35.4134C32.4104 35.3142 32.5096 35.2151 32.6286 35.1357C32.8468 34.9572 33.0649 34.7787 33.2633 34.6002C33.2633 34.5803 33.2633 34.5803 33.2435 34.5605C37.1906 30.9307 39.67 25.7538 39.67 20.0016ZM29.6335 29.8596C24.2582 26.2496 15.4515 26.2496 10.0365 29.8596C9.16377 30.4348 8.44971 31.1092 7.85466 31.8431C4.83974 28.7885 2.97525 24.6033 2.97525 20.0016C2.97525 10.699 10.5324 3.14188 19.835 3.14188C29.1376 3.14188 36.6947 10.699 36.6947 20.0016C36.6947 24.6033 34.8303 28.7885 31.8153 31.8431C31.2401 31.1092 30.5062 30.4348 29.6335 29.8596Z" fill="#9A9A9A"/>
<path d="M19.835 9.9447C15.7291 9.9447 12.3969 13.277 12.3969 17.3829C12.3969 21.4094 15.5506 24.6821 19.7358 24.8011C19.7953 24.8011 19.8746 24.8011 19.9143 24.8011C19.954 24.8011 20.0135 24.8011 20.0532 24.8011C20.073 24.8011 20.0928 24.8011 20.0928 24.8011C24.0995 24.6623 27.2533 21.4094 27.2731 17.3829C27.2731 13.277 23.9408 9.9447 19.835 9.9447Z" fill="#9A9A9A"/>
</svg>
